<mxfile host="app.diagrams.net" modified="2023-01-11T08:07:14.996Z" agent="5.0 (Windows NT 10.0; Win64; x64) AppleWebKit/537.36 (KHTML, like Gecko) Chrome/108.0.0.0 Safari/537.36" etag="-esd2OwlA9V-Ola-6Pti" version="20.8.3" type="github">
  <diagram id="kgpKYQtTHZ0yAKxKKP6v" name="Page-1">
    <mxGraphModel dx="955" dy="528" grid="1" gridSize="10" guides="1" tooltips="1" connect="1" arrows="1" fold="1" page="1" pageScale="1" pageWidth="850" pageHeight="1100" math="0" shadow="0">
      <root>
        <mxCell id="0" />
        <mxCell id="1" parent="0" />
        <mxCell id="3nuBFxr9cyL0pnOWT2aG-1" value="Halaman Data &#xa;Perjalanan Dinas" style="shape=umlLifeline;perimeter=lifelinePerimeter;container=1;collapsible=0;recursiveResize=0;rounded=0;shadow=0;strokeWidth=1;" parent="1" vertex="1">
          <mxGeometry x="140" y="80" width="100" height="300" as="geometry" />
        </mxCell>
        <mxCell id="3nuBFxr9cyL0pnOWT2aG-2" value="" style="points=[];perimeter=orthogonalPerimeter;rounded=0;shadow=0;strokeWidth=1;" parent="3nuBFxr9cyL0pnOWT2aG-1" vertex="1">
          <mxGeometry x="45" y="70" width="10" height="190" as="geometry" />
        </mxCell>
        <mxCell id="3nuBFxr9cyL0pnOWT2aG-5" value="Form Tambah Data&#xa;Perjalanan Dinas" style="shape=umlLifeline;perimeter=lifelinePerimeter;container=1;collapsible=0;recursiveResize=0;rounded=0;shadow=0;strokeWidth=1;" parent="1" vertex="1">
          <mxGeometry x="300" y="80" width="120" height="300" as="geometry" />
        </mxCell>
        <mxCell id="3nuBFxr9cyL0pnOWT2aG-6" value="" style="points=[];perimeter=orthogonalPerimeter;rounded=0;shadow=0;strokeWidth=1;" parent="3nuBFxr9cyL0pnOWT2aG-5" vertex="1">
          <mxGeometry x="55" y="100" width="10" height="160" as="geometry" />
        </mxCell>
        <mxCell id="3nuBFxr9cyL0pnOWT2aG-7" value="return" style="verticalAlign=bottom;endArrow=open;dashed=1;endSize=8;exitX=0;exitY=0.95;shadow=0;strokeWidth=1;" parent="1" source="3nuBFxr9cyL0pnOWT2aG-6" target="3nuBFxr9cyL0pnOWT2aG-2" edge="1">
          <mxGeometry relative="1" as="geometry">
            <mxPoint x="295" y="236" as="targetPoint" />
          </mxGeometry>
        </mxCell>
        <mxCell id="3nuBFxr9cyL0pnOWT2aG-8" value="Menampilkan Form Tambah&#xa;Data Perjalanan Dinas" style="verticalAlign=bottom;endArrow=block;entryX=0;entryY=0;shadow=0;strokeWidth=1;" parent="1" source="3nuBFxr9cyL0pnOWT2aG-2" target="3nuBFxr9cyL0pnOWT2aG-6" edge="1">
          <mxGeometry relative="1" as="geometry">
            <mxPoint x="295" y="160" as="sourcePoint" />
          </mxGeometry>
        </mxCell>
        <mxCell id="3nuBFxr9cyL0pnOWT2aG-10" value="return" style="verticalAlign=bottom;endArrow=open;dashed=1;endSize=8;exitX=1;exitY=0.95;shadow=0;strokeWidth=1;" parent="1" target="3nuBFxr9cyL0pnOWT2aG-6" edge="1">
          <mxGeometry relative="1" as="geometry">
            <mxPoint x="260" y="257" as="targetPoint" />
            <mxPoint x="200" y="276" as="sourcePoint" />
          </mxGeometry>
        </mxCell>
        <mxCell id="HN42ftDHFfCqJlmSYsm9-1" value="Kontrol Perjalanan&#xa;Dinas" style="shape=umlLifeline;perimeter=lifelinePerimeter;container=1;collapsible=0;recursiveResize=0;rounded=0;shadow=0;strokeWidth=1;" vertex="1" parent="1">
          <mxGeometry x="490" y="80" width="120" height="300" as="geometry" />
        </mxCell>
        <mxCell id="HN42ftDHFfCqJlmSYsm9-2" value="" style="points=[];perimeter=orthogonalPerimeter;rounded=0;shadow=0;strokeWidth=1;" vertex="1" parent="HN42ftDHFfCqJlmSYsm9-1">
          <mxGeometry x="55" y="130" width="10" height="160" as="geometry" />
        </mxCell>
        <mxCell id="HN42ftDHFfCqJlmSYsm9-3" value="Data Perjalanan&#xa;Dinas" style="shape=umlLifeline;perimeter=lifelinePerimeter;container=1;collapsible=0;recursiveResize=0;rounded=0;shadow=0;strokeWidth=1;" vertex="1" parent="1">
          <mxGeometry x="640" y="80" width="120" height="300" as="geometry" />
        </mxCell>
        <mxCell id="HN42ftDHFfCqJlmSYsm9-4" value="" style="points=[];perimeter=orthogonalPerimeter;rounded=0;shadow=0;strokeWidth=1;" vertex="1" parent="HN42ftDHFfCqJlmSYsm9-3">
          <mxGeometry x="55" y="80" width="10" height="160" as="geometry" />
        </mxCell>
        <mxCell id="HN42ftDHFfCqJlmSYsm9-8" value="&lt;font style=&quot;font-size: 9px;&quot;&gt;Klik Tambah Data&amp;nbsp;Perjalanan Dinas&lt;/font&gt;" style="edgeStyle=orthogonalEdgeStyle;rounded=1;orthogonalLoop=1;jettySize=auto;html=1;entryX=0.147;entryY=0.01;entryDx=0;entryDy=0;entryPerimeter=0;endArrow=block;verticalAlign=bottom;shadow=0;strokeWidth=1;" edge="1" parent="1" source="HN42ftDHFfCqJlmSYsm9-5" target="3nuBFxr9cyL0pnOWT2aG-2">
          <mxGeometry relative="1" as="geometry">
            <Array as="points">
              <mxPoint x="110" y="152" />
              <mxPoint x="110" y="152" />
            </Array>
          </mxGeometry>
        </mxCell>
        <mxCell id="HN42ftDHFfCqJlmSYsm9-5" value="" style="shape=umlLifeline;participant=umlActor;perimeter=lifelinePerimeter;whiteSpace=wrap;html=1;container=1;collapsible=0;recursiveResize=0;verticalAlign=top;spacingTop=36;outlineConnect=0;" vertex="1" parent="1">
          <mxGeometry x="20" y="80" width="20" height="300" as="geometry" />
        </mxCell>
        <mxCell id="HN42ftDHFfCqJlmSYsm9-12" style="edgeStyle=orthogonalEdgeStyle;rounded=0;orthogonalLoop=1;jettySize=auto;html=1;strokeWidth=1;fontSize=8;" edge="1" parent="1" source="3nuBFxr9cyL0pnOWT2aG-6" target="HN42ftDHFfCqJlmSYsm9-1">
          <mxGeometry relative="1" as="geometry">
            <Array as="points">
              <mxPoint x="410" y="210" />
              <mxPoint x="410" y="210" />
            </Array>
          </mxGeometry>
        </mxCell>
      </root>
    </mxGraphModel>
  </diagram>
</mxfile>
